<svg width="24" height="24" viewBox="0 0 24 24" fill="none" xmlns="http://www.w3.org/2000/svg">
<path d="M24 15.6L20.4 10.8L16.8 15.6H19.0872C18.564 18.5628 16.1616 20.9652 13.2 21.4872V13.2H15.6V10.8H13.2V8.8032C15.0516 8.2524 16.4568 6.4956 16.4568 4.458C16.4568 1.9992 14.4576 0 12 0C9.5424 0 7.5432 1.9992 7.5432 4.458C7.5432 6.4956 8.9484 8.2524 10.8 8.8032V10.8H8.4V13.2H10.8V21.4872C7.8372 20.9652 5.4348 18.5628 4.9128 15.6H7.2L3.6 10.8L0 15.6H2.4876C3.1008 20.262 7.2024 24 12 24C16.7976 24 20.8992 20.262 21.5124 15.6H24ZM9.9432 4.458C9.9432 3.324 10.866 2.4 12 2.4C13.134 2.4 14.0568 3.324 14.0568 4.458C14.0568 5.5992 13.0956 6.6 12 6.6C10.9044 6.6 9.9432 5.5992 9.9432 4.458Z" fill="#5E5E5E"/>
</svg>
