<svg width="22" height="11" viewBox="0 0 22 11" fill="none" xmlns="http://www.w3.org/2000/svg">
<path d="M15.0494 1.34367H11.3115V0.183589C11.3115 0.112392 11.2538 0.0546875 11.1826 0.0546875H8.86254C8.79135 0.0546875 8.73364 0.112392 8.73364 0.183589V1.34367H1.1289C1.0577 1.34367 1 1.40137 1 1.47257V6.37053C1 6.44172 1.0577 6.49943 1.1289 6.49943H15.0494C15.1206 6.49943 15.1783 6.44172 15.1783 6.37053V1.47257C15.1783 1.40137 15.1206 1.34367 15.0494 1.34367Z" fill="#07B1E8"/>
<path d="M8.08527 11.0005C8.79713 11.0005 9.37421 10.4234 9.37421 9.71151C9.37421 8.99965 8.79713 8.42257 8.08527 8.42257C7.3734 8.42257 6.79633 8.99965 6.79633 9.71151C6.79633 10.4234 7.3734 11.0005 8.08527 11.0005Z" fill="#2B3990"/>
<path d="M18.3968 11.0005C19.1087 11.0005 19.6857 10.4234 19.6857 9.71151C19.6857 8.99965 19.1087 8.42257 18.3968 8.42257C17.6849 8.42257 17.1078 8.99965 17.1078 9.71151C17.1078 10.4234 17.6849 11.0005 18.3968 11.0005Z" fill="#2B3990"/>
<path d="M21.6183 4.14674L18.8849 1.41333L18.881 1.41726V1.41333H15.8189V7.21356H1.18943C1.08263 7.21356 0.996094 7.30014 0.996094 7.40693V9.59811C0.996094 9.7049 1.08263 9.79144 1.18943 9.79144H1.64867C1.64753 9.76434 1.6406 9.73889 1.6406 9.71151C1.6406 8.64537 2.50787 7.7781 3.57401 7.7781C4.64016 7.7781 5.50742 8.64537 5.50742 9.71151C5.50742 9.73889 5.5005 9.76434 5.49936 9.79144H6.15992C6.15878 9.76438 6.15185 9.73901 6.15185 9.71167C6.15185 8.64387 7.01747 7.77826 8.08527 7.77826C9.15306 7.77826 10.0187 8.64387 10.0187 9.71167C10.0187 9.73901 10.0118 9.76438 10.0106 9.79144H16.4714C16.4703 9.76438 16.4634 9.73901 16.4634 9.71167C16.4634 8.64387 17.329 7.77826 18.3968 7.77826C19.4646 7.77826 20.3302 8.64387 20.3302 9.71167C20.3302 9.73901 20.3233 9.76438 20.3221 9.79144H21.4258C21.5326 9.79144 21.6191 9.7049 21.6191 9.59811L21.6183 4.14674ZM20.9747 4.63568H18.3968V5.28015H16.4634V2.0578H18.6179L20.9747 4.41454V4.63568Z" fill="#2B3990"/>
<path d="M3.57397 11.0005C4.28584 11.0005 4.86291 10.4234 4.86291 9.71151C4.86291 8.99965 4.28584 8.42257 3.57397 8.42257C2.86211 8.42257 2.28503 8.99965 2.28503 9.71151C2.28503 10.4234 2.86211 11.0005 3.57397 11.0005Z" fill="#2B3990"/>
</svg>
